<svg width="320" height="200" viewBox="0 0 320 200" fill="none" xmlns="http://www.w3.org/2000/svg">
<circle cx="6" cy="4" r="16" fill="none" stroke="#94a3b8" stroke-width="1" stroke-opacity="0.28"/>
<circle cx="6" cy="4" r="32" fill="none" stroke="#94a3b8" stroke-width="1" stroke-opacity="0.24"/>
<circle cx="6" cy="4" r="48" fill="none" stroke="#94a3b8" stroke-width="1" stroke-opacity="0.20"/>
<circle cx="6" cy="4" r="64" fill="none" stroke="#94a3b8" stroke-width="1" stroke-opacity="0.16"/>
<circle cx="6" cy="4" r="80" fill="none" stroke="#94a3b8" stroke-width="1" stroke-opacity="0.12"/>
<circle cx="14" cy="196" r="10" fill="none" stroke="#94a3b8" stroke-width="1" stroke-opacity="0.24"/>
<circle cx="14" cy="196" r="20" fill="none" stroke="#94a3b8" stroke-width="1" stroke-opacity="0.19"/>
<circle cx="14" cy="196" r="30" fill="none" stroke="#94a3b8" stroke-width="1" stroke-opacity="0.14"/>
<circle cx="170" cy="30" r="6" fill="none" stroke="#94a3b8" stroke-width="1" stroke-opacity="0.22"/>
<circle cx="210" cy="60" r="3" fill="none" stroke="#94a3b8" stroke-width="1" stroke-opacity="0.22"/>
<circle cx="255" cy="22" r="4" fill="none" stroke="#94a3b8" stroke-width="1" stroke-opacity="0.22"/>
<circle cx="150" cy="110" r="5" fill="none" stroke="#94a3b8" stroke-width="1" stroke-opacity="0.22"/>
<circle cx="268" cy="120" r="7" fill="none" stroke="#94a3b8" stroke-width="1" stroke-opacity="0.22"/>
<circle cx="120" cy="150" r="3" fill="none" stroke="#94a3b8" stroke-width="1" stroke-opacity="0.22"/>
<circle cx="250" cy="150" r="1.3" fill="#94a3b8" fill-opacity="0.28"/>
<circle cx="258" cy="150" r="1.3" fill="#94a3b8" fill-opacity="0.28"/>
<circle cx="266" cy="150" r="1.3" fill="#94a3b8" fill-opacity="0.28"/>
<circle cx="274" cy="150" r="1.3" fill="#94a3b8" fill-opacity="0.28"/>
<circle cx="250" cy="158" r="1.3" fill="#94a3b8" fill-opacity="0.28"/>
<circle cx="258" cy="158" r="1.3" fill="#94a3b8" fill-opacity="0.28"/>
<circle cx="266" cy="158" r="1.3" fill="#94a3b8" fill-opacity="0.28"/>
<circle cx="274" cy="158" r="1.3" fill="#94a3b8" fill-opacity="0.28"/>
<circle cx="250" cy="166" r="1.3" fill="#94a3b8" fill-opacity="0.28"/>
<circle cx="258" cy="166" r="1.3" fill="#94a3b8" fill-opacity="0.28"/>
<circle cx="266" cy="166" r="1.3" fill="#94a3b8" fill-opacity="0.28"/>
<circle cx="274" cy="166" r="1.3" fill="#94a3b8" fill-opacity="0.28"/>
<circle cx="250" cy="174" r="1.3" fill="#94a3b8" fill-opacity="0.28"/>
<circle cx="258" cy="174" r="1.3" fill="#94a3b8" fill-opacity="0.28"/>
<circle cx="266" cy="174" r="1.3" fill="#94a3b8" fill-opacity="0.28"/>
<circle cx="274" cy="174" r="1.3" fill="#94a3b8" fill-opacity="0.28"/>
</svg>